<?xml version="1.0" encoding="UTF-8"?>
<svg id="Layer_3" data-name="Layer 3" xmlns="http://www.w3.org/2000/svg" viewBox="0 0 1000 250">
  <defs>
    <style>
      .cls-1 {
        fill: none;
        stroke: #e8af28;
        stroke-miterlimit: 10;
        stroke-width: 7px;
      }

      .cls-2 {
        fill: #54a89a;
      }

      .cls-2, .cls-3, .cls-4, .cls-5 {
        stroke-width: 0px;
      }

      .cls-3 {
        fill: #173149;
      }

      .cls-4 {
        fill: #fff;
      }

      .cls-5 {
        fill: #e8af28;
      }
    </style>
  </defs>
  <g>
    <path class="cls-4" d="m301.06,85c-13.28-11.95-24.7-12.75-29.74-12.75-5.58,0-12.48.8-17.26,6.11-2.66,2.66-4.52,6.64-4.52,11.15,0,4.25,1.33,7.44,3.98,9.82,4.25,3.98,10.36,5.58,22.31,10.09l13.28,5.05c7.7,2.92,17.26,6.9,24.16,13.54,10.36,9.82,13.01,22.57,13.01,32.93,0,18.32-6.37,34.26-15.67,43.82-15.67,16.46-38.5,18.06-50.19,18.06-12.75,0-23.9-1.86-35.05-7.44-9.03-4.51-19.39-12.75-26.02-19.38l21.24-29.21c4.51,4.51,11.68,10.62,16.46,13.54,6.9,4.25,14.07,6.37,22.31,6.37,5.31,0,12.75-1.06,18.59-6.11,3.45-2.92,6.37-7.7,6.37-14.34,0-5.84-2.39-9.56-6.11-12.75-4.78-3.98-15.67-7.97-20.71-9.83l-14.61-5.05c-8.23-2.92-17.79-6.64-24.7-14.07-9.3-9.83-10.62-22.31-10.62-30.8,0-15.67,4.78-28.95,15.4-39.83,12.48-12.75,27.35-16.2,43.82-16.2,12.21,0,31.87,2.12,52.58,17.53l-18.32,29.74Z"/>
    <path class="cls-4" d="m490.31,213.26c-15.67,7.97-28.42,9.56-39.04,9.56-32.66,0-54.7-11.15-69.57-25.76-15.93-15.4-27.62-38.77-27.62-67.18s11.68-51.25,27.62-66.66c15.67-15.14,38.51-25.49,66.12-25.49,11.68,0,25.23,2.39,42.49,9.83v47.27c-9.03-9.56-22.57-18.86-41.43-18.86-14.87,0-26.82,4.78-36.12,13.81-9.82,9.56-16.73,23.9-16.73,40.89,0,18.32,7.43,31.34,15.4,39.04,3.72,3.72,16.46,14.87,38.24,14.87,10.62,0,24.96-2.92,40.63-18.32v47Z"/>
    <path class="cls-4" d="m578.96,41.71c22.57,0,36.64,7.44,45.14,15.4,7.44,7.17,15.4,19.92,15.4,39.57,0,11.15-2.39,24.96-13.81,36.12-6.11,5.84-14.87,11.15-24.7,13.54l54.44,72.5h-49.93l-47.8-69.84v69.84h-40.9V41.71h62.14Zm-21.24,80.46h9.29c7.44,0,17.53-.8,24.43-7.7,2.92-2.92,6.64-8.5,6.64-17.26,0-10.09-4.78-15.4-8.23-18.06-6.64-5.05-17.26-5.58-22.57-5.58h-9.56v48.6Z"/>
    <path class="cls-4" d="m792.03,185.38h-66.92l-13.54,33.46h-42.49l71.43-177.12h37.44l69.84,177.12h-42.49l-13.28-33.46Zm-11.15-31.34l-21.78-59.48-22.04,59.48h43.82Z"/>
    <path class="cls-4" d="m918.06,41.71c9.56,0,31.34.53,45.14,13.54,11.42,10.89,12.75,25.76,12.75,33.46,0,6.9-1.06,14.87-5.84,22.57-4.51,7.44-10.62,11.15-14.87,13.01,8.5,1.33,18.06,5.58,24.43,11.95,5.84,5.84,11.42,15.93,11.42,31.6,0,17.79-6.9,28.95-13.81,35.85-14.61,14.07-35.85,15.14-46.74,15.14h-66.65V41.71h54.17Zm-13.81,71.97h6.64c5.58,0,14.87-.8,20.71-5.05,3.72-2.66,7.17-7.97,7.17-15.67s-3.72-12.48-6.9-14.87c-5.84-4.51-13.81-4.51-21.24-4.51h-6.37v40.1Zm0,73.29h9.82c10.36,0,22.84-.27,30.27-7.17,3.72-3.45,5.84-8.5,5.84-14.87,0-7.17-2.92-11.95-5.58-14.34-7.17-6.64-20.98-6.64-29.21-6.64h-11.15v43.02Z"/>
  </g>
  <g>
    <path class="cls-2" d="m94.9,247.34h-19.43C34.76,247.34,1.44,214.03,1.44,173.31v-72.43C1.44,60.17,44.47,26.85,85.19,26.85h0c40.72,0,83.74,33.31,83.74,74.03v72.43c0,40.72-33.31,74.03-74.03,74.03Z"/>
    <path class="cls-2" d="m101.01,48.73c-.49,0-1-.06-1.55-.17-4.89-1.02-9.52-1.52-14.15-1.52s-9.25.5-14.12,1.52c-.55.12-1.06.17-1.57.17-.18,0-.35,0-.53-.02-4.23-.35-6.13-3.91-7.27-6.03-.22-.42-.43-.81-.63-1.14-.04-.07-.08-.1-.09-.11-5.79-2.11-9.49-7.83-11.17-11.05-2.65-5.05-3.81-10.4-3.13-14.29.74-4.2,3.68-6.81,7.67-6.81,2.46,0,5.26.99,8.52,3,.04-.06.07-.12.11-.18,1.42-2.38,3.03-5.09,5.37-7.3,1.1-1.04,2.43-1.73,3.83-1.99.48-.09.97-.13,1.45-.13,5,0,8.62,4.37,11.54,8.03,4.18-5.06,7.37-8.04,11.38-8.04,4.65,0,7.94,4.27,11,9.51,2.11-1.34,5.29-2.94,8.41-2.94,4.24,0,7.17,2.78,7.83,7.45.06.4.08.82.07,1.25-.24,10.63-4.86,18.12-14.52,23.58l-.2.39c-1.24,2.41-3.31,6.44-7.7,6.82-.18.02-.36.02-.54.02Z"/>
    <path class="cls-3" d="m116.3,19.17c-.2,8.87-4.25,14.17-11.19,18.09-.59.33-1.06.83-1.38,1.43-.98,1.88-2.12,4.37-4.26,4.56-.29.02-.58-.01-.86-.07-9.09-1.91-17.53-1.91-26.63,0-.29.06-.58.1-.88.07-2.34-.19-3.21-2.83-4.36-4.73-.43-.71-1.07-1.27-1.84-1.56-10.86-3.96-17.3-31.08.19-18.78.65.55,1.72.37,2.1-.3,1.64-2.54,3.1-5.6,5.44-7.82.46-.44,1.04-.77,1.66-.88,4-.74,7.65,5.35,10.19,8.15.77.81.78.85,1.58,0,8.32-10.43,10.54-11.65,17.29.56.4.67,1.45.85,2.12.29,3.14-2.48,9.88-5.99,10.78.45.03.18.03.37.03.55Z"/>
    <path class="cls-3" d="m79.77,128.32l.27,107.68c0,.98-.79,1.77-1.77,1.77h0c-37.79,0-68.71-30.92-68.71-68.71v-51.41c0-.94.73-1.72,1.67-1.77,24.51-1.33,49.06,3.07,68.44,12.39.03.02.07.03.11.05Z"/>
    <path class="cls-3" d="m161.03,117.45v51.74c0,37.72-30.86,68.58-68.58,68.58h0c-.9,0-1.63-.73-1.64-1.63l-.27-107.82s.06-.03.09-.04c19.34-9.44,44.03-13.86,68.86-12.46.86.05,1.54.77,1.54,1.63Z"/>
    <path class="cls-3" d="m87.02,118.07c-.57.27-1.19.41-1.82.41h0s-.07,0-.07,0c-.03,0-.04,0-.07,0-.6,0-1.2-.14-1.74-.4-19.86-9.31-44.47-13.92-69.16-13.1-2.53.08-4.59-2.04-4.41-4.56,2.54-34.56,40.38-62.05,75.55-62.05h0c35.15,0,72.97,27.45,75.55,61.97.19,2.53-1.88,4.65-4.41,4.57-24.94-.86-49.61,3.76-69.42,13.16Z"/>
    <path class="cls-5" d="m108.84,21.77c-.15-.09-.34-.14-.52-.14-.12,0-.24.02-.36.07-1.55.6-2.92,1.27-4.07,2.02-.3.19-.53.31-.74.39-1.73.63-3.7.07-4.6-1.32-1.12-1.73-2.43-3.47-3.91-5.18,0,0-.13-.15-.23-.2-.14-.07-.41-.09-.41-.09-.24-.01-.45.02-.63.16-1.94,1.42-3.72,3.1-5.45,5.13-.65.76-1.6,1.33-2.62,1.33s-1.97-.57-2.62-1.33c-1.73-2.03-3.51-3.71-5.45-5.13-.19-.14-.39-.17-.63-.16,0,0-.27.02-.41.09-.11.05-.23.2-.23.2-1.48,1.7-2.79,3.45-3.91,5.18-.9,1.39-2.87,1.95-4.6,1.32-.22-.08-.45-.2-.74-.39-1.15-.74-2.52-1.42-4.07-2.02-.11-.05-.23-.07-.35-.07-.18,0-.36.05-.52.14-.23.14-.38.38-.38.62v.03c.24,5.74,2.8,9.33,8.31,11.61.69.29,1.25.75,1.61,1.33l1.6,2.58c.15.25.45.4.78.4h.17c4.2-.77,7.09-1.15,11.45-1.15,4.36,0,7.25.39,11.45,1.14h.09s.09.01.09.01c.33,0,.63-.16.78-.4l1.6-2.58c.36-.58.91-1.04,1.61-1.33,5.51-2.28,8.08-5.87,8.32-11.61v-.02c0-.24-.15-.49-.38-.63Zm-1.68,3.37c-.82,3.58-3.01,5.91-7,7.57-1.02.42-1.84,1.1-2.37,1.96l-1.01,1.62c-.18.29-.56.45-.94.39-3.89-.63-6.53-.95-10.55-.96-4.02,0-6.66.33-10.55.96-.38.06-.76-.09-.95-.39l-1-1.62c-.53-.86-1.35-1.53-2.37-1.96-3.99-1.65-6.19-3.99-7-7.57-.15-.67.7-1.15,1.37-.78.31.17.6.35.88.53.27.18.65.4,1.1.57,2.53.93,5.44.09,6.75-1.95.79-1.23,1.69-2.46,2.67-3.68.31-.38.95-.44,1.34-.11,1.3,1.09,2.55,2.34,3.77,3.77.94,1.1,2.49,1.91,3.99,1.92,1.5-.01,3.05-.82,3.99-1.92,1.22-1.43,2.46-2.67,3.77-3.77.39-.33,1.03-.28,1.34.11.99,1.22,1.88,2.45,2.67,3.68,1.32,2.04,4.23,2.88,6.76,1.95.45-.16.82-.39,1.1-.57.28-.18.57-.36.88-.53.66-.37,1.52.12,1.37.78Z"/>
    <path class="cls-1" d="m85.12,98.51c-15.61-6.4-33.59-10.46-52.01-11.79,3.18-5.64,7.85-10.98,13.74-15.63,11.31-8.93,25.32-14.05,38.45-14.05s27.13,5.11,38.43,14.03c5.87,4.63,10.53,9.94,13.71,15.55-18.59,1.32-36.69,5.42-52.32,11.89Z"/>
    <path class="cls-1" d="m109.23,140.76c10.04-3.45,21.43-5.61,33.14-6.3v34.73c0,13.26-5.21,25.78-14.68,35.24-5.29,5.29-11.49,9.25-18.27,11.71l-.19-75.38Z"/>
    <path class="cls-1" d="m61.34,216.16c-6.83-2.47-13.06-6.44-18.39-11.77-9.49-9.49-14.72-22.04-14.72-35.34v-34.49c11.59.71,22.9,2.86,32.92,6.28l.19,75.32Z"/>
  </g>
</svg>