<?xml version="1.0" encoding="UTF-8"?>
<svg id="Layer_2" data-name="Layer 2" xmlns="http://www.w3.org/2000/svg" viewBox="0 0 500 500">
  <defs>
    <style>
      .cls-1 {
        fill: none;
        stroke: #e8af28;
        stroke-miterlimit: 10;
        stroke-width: 13px;
      }

      .cls-2 {
        fill: #54a89a;
      }

      .cls-2, .cls-3, .cls-4 {
        stroke-width: 0px;
      }

      .cls-3 {
        fill: #173149;
      }

      .cls-4 {
        fill: #e8af28;
      }
    </style>
  </defs>
  <path class="cls-2" d="m265.24,498.91h-39.54c-82.86,0-150.66-67.8-150.66-150.66v-147.4c0-82.86,87.56-150.66,170.43-150.66h0c82.86,0,170.43,67.8,170.43,150.66v147.4c0,82.86-67.8,150.66-150.66,150.66Z"/>
  <path class="cls-2" d="m277.68,94.71c-1.01,0-2.04-.11-3.16-.35-9.94-2.08-19.36-3.1-28.79-3.1s-18.82,1.01-28.74,3.09c-1.12.23-2.17.35-3.19.35-.36,0-.71-.01-1.07-.04-8.61-.7-12.48-7.95-14.79-12.28-.45-.85-.88-1.65-1.29-2.32-.08-.14-.16-.21-.19-.22-11.79-4.3-19.31-15.93-22.73-22.48-5.38-10.29-7.76-21.16-6.36-29.09,1.51-8.55,7.49-13.86,15.61-13.86,5.01,0,10.71,2.01,17.33,6.11.07-.12.15-.25.22-.38,2.89-4.85,6.16-10.35,10.92-14.85,2.24-2.12,4.94-3.52,7.8-4.04.97-.18,1.97-.27,2.96-.27,10.17,0,17.54,8.89,23.48,16.34,8.51-10.29,15-16.36,23.16-16.36,9.47,0,16.17,8.69,22.39,19.35,4.3-2.73,10.76-5.99,17.11-5.99,8.64,0,14.59,5.67,15.93,15.16.11.81.16,1.66.14,2.54-.5,21.63-9.89,36.88-29.55,47.99l-.41.79c-2.52,4.9-6.73,13.1-15.68,13.87-.37.03-.74.05-1.1.05Z"/>
  <path class="cls-3" d="m308.79,34.56c-.41,18.05-8.65,28.84-22.77,36.81-1.2.68-2.17,1.69-2.8,2.91-1.98,3.83-4.32,8.9-8.68,9.28-.58.05-1.17-.03-1.75-.15-18.5-3.88-35.68-3.89-54.19,0-.58.12-1.19.19-1.78.15-4.77-.39-6.53-5.75-8.87-9.63-.87-1.44-2.17-2.59-3.75-3.17-22.11-8.07-35.21-63.25.4-38.21,1.32,1.12,3.5.74,4.28-.61,3.33-5.17,6.31-11.41,11.07-15.91.95-.89,2.11-1.56,3.39-1.79,8.15-1.5,15.57,10.9,20.73,16.58,1.57,1.64,1.59,1.73,3.21,0,16.92-21.23,21.46-23.71,35.19,1.13.82,1.36,2.94,1.74,4.31.6,6.4-5.04,20.1-12.18,21.94.91.05.37.07.75.06,1.12Z"/>
  <path class="cls-3" d="m234.46,256.68l.55,219.14c0,1.99-1.61,3.61-3.6,3.61h0c-76.91,0-139.84-62.93-139.84-139.84v-104.62c0-1.91,1.49-3.49,3.39-3.6,49.88-2.7,99.84,6.24,139.28,25.21.07.03.14.07.22.1Z"/>
  <path class="cls-3" d="m399.81,234.57v105.29c0,76.77-62.81,139.57-139.57,139.57h0c-1.84,0-3.32-1.49-3.33-3.32l-.56-219.42c.06-.03.13-.05.19-.09,39.36-19.21,89.61-28.2,140.14-25.36,1.76.1,3.13,1.57,3.13,3.33Z"/>
  <path class="cls-3" d="m249.19,235.83c-1.16.55-2.42.84-3.7.84h0s-.15,0-.15,0c-.07,0-.08,0-.15,0-1.23,0-2.43-.29-3.55-.81-40.42-18.95-90.49-28.32-140.75-26.66-5.14.17-9.34-4.15-8.97-9.28,5.16-70.33,82.17-126.27,153.76-126.27h0c71.53,0,148.5,55.86,153.74,126.1.38,5.14-3.83,9.47-8.98,9.29-50.74-1.75-100.96,7.66-141.27,26.79Z"/>
  <path class="cls-4" d="m293.62,39.85c-.31-.18-.69-.28-1.06-.28-.25,0-.49.04-.72.13-3.16,1.21-5.95,2.59-8.28,4.1-.6.39-1.07.63-1.51.8-3.51,1.29-7.53.14-9.35-2.68-2.28-3.52-4.95-7.06-7.96-10.53,0,0-.26-.3-.48-.4-.28-.13-.84-.18-.84-.18-.5-.03-.91.05-1.29.32-3.95,2.9-7.58,6.31-11.1,10.44-1.33,1.55-3.26,2.7-5.33,2.7s-4-1.15-5.33-2.7c-3.52-4.13-7.15-7.54-11.1-10.44-.38-.28-.79-.35-1.29-.32,0,0-.56.05-.84.18-.21.1-.48.4-.48.4-3,3.47-5.68,7.01-7.96,10.53-1.82,2.82-5.84,3.97-9.35,2.68-.45-.17-.91-.41-1.51-.8-2.34-1.51-5.13-2.89-8.29-4.1-.23-.09-.47-.13-.72-.13-.37,0-.74.1-1.06.28-.47.29-.77.77-.77,1.27v.06c.48,11.69,5.71,18.98,16.92,23.63,1.41.59,2.55,1.52,3.27,2.7l3.25,5.25c.31.51.92.82,1.6.82h.18l.18-.03c8.54-1.53,14.43-2.31,23.3-2.32,8.87.01,14.76.79,23.3,2.32l.18.03h.18c.67,0,1.28-.32,1.6-.82l3.25-5.25c.73-1.18,1.86-2.11,3.27-2.7,11.22-4.65,16.44-11.94,16.93-23.63v-.05c0-.49-.3-.99-.77-1.28Zm-3.41,6.86c-1.66,7.28-6.13,12.04-14.25,15.4-2.08.86-3.75,2.24-4.83,3.98l-2.05,3.3c-.37.6-1.14.91-1.92.79-7.93-1.28-13.29-1.93-21.47-1.94-8.18.02-13.55.67-21.47,1.94-.77.13-1.55-.19-1.92-.79l-2.04-3.3c-1.08-1.74-2.75-3.12-4.83-3.98-8.11-3.37-12.6-8.12-14.25-15.4-.31-1.36,1.43-2.35,2.78-1.59.63.35,1.23.71,1.79,1.07.56.36,1.32.82,2.23,1.16,5.15,1.89,11.06.19,13.75-3.97,1.62-2.5,3.44-5.01,5.44-7.49.63-.78,1.94-.89,2.73-.22,2.65,2.23,5.18,4.76,7.66,7.67,1.91,2.24,5.07,3.88,8.13,3.91,3.06-.03,6.22-1.67,8.13-3.91,2.48-2.91,5-5.44,7.66-7.67.79-.67,2.1-.56,2.73.22,2.01,2.49,3.83,4.99,5.44,7.49,2.69,4.16,8.6,5.86,13.75,3.97.91-.33,1.67-.79,2.23-1.16.57-.36,1.16-.72,1.79-1.07,1.35-.75,3.09.24,2.78,1.59Z"/>
  <path class="cls-1" d="m245.38,218.18c-38.54-17.29-85.6-26.79-133.06-26.79-.5,0-1,0-1.51,0,4.68-24.67,20.04-48.21,44.03-67.16,26.54-20.95,59.65-32.97,90.86-32.97s64.28,12,90.81,32.92c23.97,18.9,39.33,42.4,44.05,67.03-.69,0-1.37,0-2.05,0-47.71,0-94.79,9.56-133.13,26.96Z"/>
  <path class="cls-1" d="m274.01,268.01c30.15-12.73,66.75-19.67,104.35-19.67,1.28,0,2.56,0,3.84.02v91.48c0,32.42-12.73,63-35.84,86.11-19.69,19.69-44.81,31.84-71.86,35.01l-.49-192.96Z"/>
  <path class="cls-1" d="m217.35,461c-27.2-3.13-52.45-15.32-72.24-35.11-23.16-23.16-35.92-53.81-35.92-86.3v-91.05c1.09-.01,2.18-.02,3.26-.02,37.41,0,74.04,6.91,104.41,19.58l.49,192.9Z"/>
</svg>